<svg width="24" height="24" viewBox="0 0 24 24" fill="none" xmlns="http://www.w3.org/2000/svg">
<path d="M11 4C11 3.44772 11.4477 3 12 3H17C19.2091 3 21 4.79086 21 7V8C21 10.2091 19.2091 12 17 12H12C11.4477 12 11 11.5523 11 11V4Z" fill="black"/>
<path d="M3 4C3 3.44772 3.44772 3 4 3H9C9.55228 3 10 3.44772 10 4V20C10 20.5523 9.55228 21 9 21H4C3.44772 21 3 20.5523 3 20V4Z" fill="black"/>
<path d="M20 13H12C11.4477 13 11 13.4477 11 14V20C11 20.5523 11.4477 21 12 21H20C20.5523 21 21 20.5523 21 20V14C21 13.4477 20.5523 13 20 13Z" fill="black"/>
</svg>
